<svg width="1600" height="3400" viewBox="0 0 1600 3400" fill="none" xmlns="http://www.w3.org/2000/svg">
<g clip-path="url(#clip0)">
<rect width="1600" height="3400" fill="#E6E9F3"/>
<g opacity="0.75">
<path d="M1258.15 2212.86C1081.55 2051.13 829.982 2086.62 650.227 2275.88C470.473 2465.13 506.518 2761.24 714.979 2883.62C923.44 3006 1153.31 3001.65 1322.9 2820.6C1492.5 2639.55 1434.75 2374.59 1258.15 2212.86Z" fill="#EFF3F0"/>
<path d="M142.512 2891.73C47.225 2839.5 -70.716 2834.86 -140.576 2921.13C-210.437 3007.4 -196.96 3134.11 -110.475 3204.14C-23.9898 3274.18 96.2879 3240.98 172.614 3174.75C248.939 3108.51 237.799 2943.96 142.512 2891.73Z" fill="#EFF3F0"/>
<path d="M129.104 2095.69C10.5508 1999.69 10.4636 1842.14 88.2375 1707.25C166.011 1572.36 298.019 1448.19 390.111 1334.47C482.202 1220.74 652.415 1191.53 778.562 1293.68C904.709 1395.83 924.368 1578.43 819.428 1682.12C714.488 1785.81 629.82 1942.17 517.555 2054.9C405.291 2167.64 247.656 2191.7 129.104 2095.69Z" fill="#EFF3F0"/>
<path d="M1087.78 1956.53C1057.8 1932.25 1017.08 1937.76 993.863 1966.42C970.647 1995.09 974.381 2042.47 1003.71 2060.35C1033.04 2078.23 1076.25 2085.03 1097.63 2050.46C1119.02 2015.88 1117.77 1980.81 1087.78 1956.53Z" fill="#E0436B"/>
<path d="M974.971 1946.12C986.339 1941.87 990.526 1929.69 986.115 1917.21C981.703 1904.74 967.5 1899.55 957.175 1906.15C946.85 1912.75 941.757 1923.23 946.031 1935.06C950.305 1946.89 963.602 1950.38 974.971 1946.12Z" fill="#E0436B"/>
<path d="M885.669 2358.62C835.996 2318.4 768.529 2327.52 730.067 2375.01C691.605 2422.51 697.791 2501 746.385 2530.62C794.979 2560.25 866.555 2571.51 901.987 2514.23C937.418 2456.95 935.342 2398.85 885.669 2358.62Z" fill="#7252A4"/>
<path d="M1029.37 2644.46C1009.68 2628.51 982.94 2632.13 967.693 2650.95C952.447 2669.78 954.899 2700.89 974.162 2712.64C993.424 2724.38 1021.8 2728.85 1035.84 2706.14C1049.89 2683.43 1049.06 2660.4 1029.37 2644.46Z" fill="#7252A4"/>
<path d="M941.335 2640.16C932.385 2632.91 920.229 2634.56 913.299 2643.11C906.369 2651.67 907.483 2665.81 916.239 2671.15C924.995 2676.49 937.891 2678.52 944.275 2668.2C950.659 2657.88 950.285 2647.41 941.335 2640.16Z" fill="#7252A4"/>
<path d="M493.895 1549.38C461.352 1523.02 401.99 1555.99 365.484 1591.72C328.977 1627.45 334.113 1691.22 379.342 1721.17C424.571 1751.12 476.911 1747.25 508.846 1707.81C540.78 1668.38 526.438 1575.73 493.895 1549.38Z" fill="#7252A4"/>
<path d="M1523.17 1730.69C1451.15 1664.74 1348.55 1679.21 1275.25 1756.4C1201.94 1833.58 1216.64 1954.34 1301.65 2004.25C1386.67 2054.16 1480.41 2052.38 1549.58 1978.55C1618.74 1904.71 1595.19 1796.65 1523.17 1730.69Z" fill="#F0C933"/>
<path d="M119.91 2258.79C92.6467 2233.82 53.8095 2239.3 26.0595 2268.52C-1.69061 2297.74 3.87388 2343.45 36.0557 2362.34C68.2374 2381.23 103.724 2380.56 129.906 2352.61C156.088 2324.66 147.173 2283.76 119.91 2258.79Z" fill="#F0C933"/>
<path d="M965.629 2168.69C956.677 2160.49 943.925 2162.29 934.813 2171.88C925.701 2181.47 927.528 2196.48 938.095 2202.69C948.662 2208.89 960.315 2208.67 968.912 2199.49C977.509 2190.32 974.581 2176.88 965.629 2168.69Z" fill="#F0C933"/>
<path d="M50.6296 2199.69C41.6776 2191.49 28.9251 2193.29 19.8131 2202.88C10.7011 2212.47 12.5283 2227.48 23.0954 2233.69C33.6626 2239.89 45.3148 2239.67 53.9119 2230.49C62.509 2221.32 59.5816 2207.88 50.6296 2199.69Z" fill="#F0C933"/>
<path d="M931.717 2223.22C927.241 2219.12 920.864 2220.02 916.308 2224.81C911.752 2229.61 912.666 2237.12 917.949 2240.22C923.233 2243.32 929.059 2243.21 933.358 2238.62C937.656 2234.03 936.193 2227.32 931.717 2223.22Z" fill="#F0C933"/>
<path d="M1413.63 2545.69C1404.68 2537.49 1391.92 2539.29 1382.81 2548.88C1373.7 2558.47 1375.53 2573.48 1386.1 2579.69C1396.66 2585.89 1408.31 2585.67 1416.91 2576.49C1425.51 2567.32 1422.58 2553.88 1413.63 2545.69Z" fill="#453264"/>
<path d="M1750.34 737.046C1868.89 833.048 1868.98 990.596 1791.2 1125.49C1713.43 1260.38 1581.42 1384.55 1489.33 1498.27C1397.24 1612 1227.02 1641.21 1100.88 1539.06C974.73 1436.91 955.071 1254.31 1060.01 1150.62C1164.95 1046.93 1249.62 890.571 1361.88 777.835C1474.15 665.099 1631.78 641.044 1750.34 737.046Z" fill="#EFF3F0"/>
<path d="M157.63 2042.69C148.678 2034.49 135.925 2036.29 126.813 2045.88C117.701 2055.47 119.528 2070.48 130.095 2076.69C140.663 2082.89 152.315 2082.67 160.912 2073.49C169.509 2064.32 166.582 2050.88 157.63 2042.69Z" fill="#453264"/>
<path d="M-1.09037 2658.79C-28.3533 2633.82 -67.1905 2639.3 -94.9405 2668.52C-122.691 2697.74 -117.126 2743.45 -84.9443 2762.34C-52.7626 2781.23 -17.2763 2780.56 8.90583 2752.61C35.088 2724.66 26.1725 2683.76 -1.09037 2658.79Z" fill="#0F90D1"/>
<path d="M1033.34 1442.48C938.809 1365.93 810.442 1383.25 737.28 1473.6C664.118 1563.95 675.923 1713.28 768.397 1769.66C860.872 1826.05 997.068 1847.51 1064.46 1738.55C1131.85 1629.58 1127.87 1519.04 1033.34 1442.48Z" fill="#E0436B"/>
<path d="M1146.86 1723.89C1127.17 1707.95 1100.42 1711.56 1085.18 1730.39C1069.93 1749.22 1072.38 1780.33 1091.64 1792.07C1110.91 1803.82 1139.28 1808.28 1153.32 1785.57C1167.37 1762.87 1166.55 1739.84 1146.86 1723.89Z" fill="#E0436B"/>
<path d="M615.162 2937.75C508.499 2851.38 338.24 2871.35 229.402 2977.94C120.563 3084.52 135.671 3274.52 270.294 3363.63C404.918 3452.73 560.822 3441.04 656.055 3323.44C751.287 3205.83 721.825 3024.12 615.162 2937.75Z" fill="#0F90D1"/>
<path d="M49.8636 2671.26C-36.6214 2601.22 -36.6738 2486.28 20.0768 2387.85C76.8274 2289.43 173.144 2198.83 240.339 2115.85C307.534 2032.87 431.717 2011.55 523.742 2086.07C615.767 2160.59 630.096 2293.81 553.529 2369.47C476.961 2445.13 415.179 2559.21 333.267 2641.47C251.355 2723.73 136.349 2741.29 49.8636 2671.26Z" fill="#0F90D1"/>
<path d="M484.178 2693.07C447.353 2659.34 394.894 2666.74 357.41 2706.21C319.927 2745.67 327.443 2807.42 370.913 2832.94C414.382 2858.46 462.315 2857.55 497.68 2819.8C533.046 2782.04 521.003 2726.79 484.178 2693.07Z" fill="#C4C8D4"/>
<path d="M1777.66 2303.5C1676.75 2211.08 1532.99 2231.36 1430.27 2339.51C1327.56 2447.65 1348.15 2616.86 1467.27 2686.79C1586.39 2756.72 1717.75 2754.23 1814.66 2650.78C1911.57 2547.32 1878.57 2395.91 1777.66 2303.5Z" fill="#C4C8D4"/>
<path d="M30.6584 1639.43C-70.2549 1547.01 -214.011 1567.29 -316.727 1675.44C-419.444 1783.58 -398.847 1952.79 -279.726 2022.72C-160.606 2092.65 -29.2537 2090.17 67.6593 1986.71C164.572 1883.25 131.572 1731.84 30.6584 1639.43Z" fill="#C4C8D4"/>
<path d="M103.242 2791.27C87.7042 2782.76 68.4627 2782.02 57.0517 2796.11C45.6407 2810.2 47.8201 2830.88 61.9195 2842.3C76.0189 2853.72 95.6474 2848.28 108.11 2837.46C120.573 2826.63 118.781 2799.78 103.242 2791.27Z" fill="#EFF3F0"/>
<path d="M1267.46 3509.61C1180.97 3439.57 1167.64 3312.69 1237.67 3226.2C1307.7 3139.72 1400.16 3046.2 1457.93 2954.2C1515.7 2862.2 1663.36 2843.93 1741.34 2924.41C1819.31 3004.9 1849.22 3111.37 1771.12 3207.82C1693.02 3304.26 1627.6 3385.05 1550.86 3479.82C1474.12 3574.59 1353.94 3579.64 1267.46 3509.61Z" fill="#6759AE"/>
<path d="M388.25 1000.56C564.848 1162.29 816.421 1126.79 996.175 937.537C1175.93 748.283 1139.88 452.175 931.423 329.794C722.962 207.414 493.096 211.765 323.498 392.815C153.901 573.865 211.652 838.83 388.25 1000.56Z" fill="#EFF3F0"/>
<path d="M1398.29 150.015C1493.58 202.246 1611.52 206.887 1681.38 120.617C1751.24 34.3464 1737.76 -92.3635 1651.28 -162.398C1564.79 -232.432 1444.52 -199.235 1368.19 -132.999C1291.87 -66.7639 1303.01 97.7842 1398.29 150.015Z" fill="#EFF3F0"/>
<path d="M162.945 394.697C257.478 471.248 385.844 453.928 459.006 363.58C532.169 273.232 520.363 123.906 427.889 67.5189C335.415 11.1318 199.218 -10.3312 131.828 98.6362C64.4375 207.604 68.4127 318.146 162.945 394.697Z" fill="#E0436B"/>
<path d="M453.02 1085.2C483.003 1109.48 523.726 1103.98 546.942 1075.31C570.158 1046.64 566.424 999.266 537.092 981.383C507.761 963.501 464.557 956.702 443.17 991.278C421.784 1025.85 423.037 1060.92 453.02 1085.2Z" fill="#E0436B"/>
<path d="M49.4311 113.291C69.1213 129.236 95.8648 125.621 111.111 106.794C126.357 87.966 123.905 56.8542 104.643 45.1104C85.3804 33.3666 57.0076 28.9014 42.9628 51.6081C28.918 74.3149 29.7408 97.3464 49.4311 113.291Z" fill="#E0436B"/>
<path d="M587.077 995.923C575.708 1000.18 571.521 1012.36 575.933 1024.83C580.344 1037.31 594.547 1042.49 604.872 1035.89C615.197 1029.29 620.29 1018.81 616.016 1006.98C611.742 995.158 598.445 991.669 587.077 995.923Z" fill="#E0436B"/>
<path d="M1247.45 205.508C1297.12 245.733 1364.59 236.613 1403.05 189.116C1441.51 141.619 1435.33 63.1331 1386.73 33.5067C1338.14 3.88025 1266.56 -7.38427 1231.13 49.8987C1195.7 107.182 1197.78 165.284 1247.45 205.508Z" fill="#7252A4"/>
<path d="M926.312 1259.88C958.855 1286.23 1018.22 1253.27 1054.72 1217.54C1091.23 1181.8 1086.09 1118.03 1040.87 1088.08C995.636 1058.14 943.296 1062.01 911.361 1101.44C879.427 1140.88 893.769 1233.53 926.312 1259.88Z" fill="#7252A4"/>
<path d="M347.763 826.255C419.783 892.211 522.381 877.736 595.689 800.552C668.998 723.369 654.299 602.609 569.284 552.7C484.268 502.79 390.523 504.565 321.357 578.402C252.19 652.24 275.742 760.299 347.763 826.255Z" fill="#F0C933"/>
<path d="M1420.89 782.945C1448.16 807.913 1487 802.433 1514.75 773.216C1542.5 744 1536.93 698.287 1504.75 679.394C1472.57 660.501 1437.08 661.173 1410.9 689.123C1384.72 717.073 1393.63 757.978 1420.89 782.945Z" fill="#F0C933"/>
<path d="M575.175 873.048C584.127 881.246 596.88 879.447 605.992 869.853C615.104 860.26 613.276 845.25 602.709 839.046C592.142 832.843 580.49 833.063 571.893 842.241C563.296 851.418 566.223 864.85 575.175 873.048Z" fill="#F0C933"/>
<path d="M1490.17 842.048C1499.13 850.246 1511.88 848.447 1520.99 838.853C1530.1 829.26 1528.28 814.25 1517.71 808.046C1507.14 801.843 1495.49 802.063 1486.89 811.241C1478.3 820.418 1481.22 833.85 1490.17 842.048Z" fill="#F0C933"/>
<path d="M609.088 818.518C613.564 822.617 619.94 821.717 624.496 816.92C629.052 812.124 628.139 804.619 622.855 801.517C617.571 798.415 611.745 798.525 607.447 803.114C603.148 807.703 604.612 814.419 609.088 818.518Z" fill="#F0C933"/>
<path d="M874.706 3119.21C946.726 3185.17 1049.32 3170.69 1122.63 3093.51C1195.94 3016.32 1181.24 2895.56 1096.23 2845.66C1011.21 2795.75 917.466 2797.52 848.3 2871.36C779.133 2945.19 802.685 3053.25 874.706 3119.21Z" fill="#F0C933"/>
<path d="M1102.12 3166.02C1111.07 3174.21 1123.82 3172.41 1132.93 3162.82C1142.05 3153.23 1140.22 3138.22 1129.65 3132.01C1119.08 3125.81 1107.43 3126.03 1098.84 3135.21C1090.24 3144.39 1093.17 3157.82 1102.12 3166.02Z" fill="#F0C933"/>
<path d="M1136.03 3111.48C1140.51 3115.58 1146.88 3114.68 1151.44 3109.89C1155.99 3105.09 1155.08 3097.59 1149.8 3094.48C1144.51 3091.38 1138.69 3091.49 1134.39 3096.08C1130.09 3100.67 1131.55 3107.39 1136.03 3111.48Z" fill="#F0C933"/>
<path d="M127.175 496.06C136.127 504.258 148.88 502.459 157.992 492.866C167.104 483.272 165.276 468.262 154.709 462.058C144.142 455.855 132.49 456.075 123.893 465.253C115.296 474.431 118.223 487.862 127.175 496.06Z" fill="#453264"/>
<path d="M1383.17 999.048C1392.13 1007.25 1404.88 1005.45 1413.99 995.853C1423.1 986.26 1421.28 971.25 1410.71 965.046C1400.14 958.843 1388.49 959.063 1379.89 968.241C1371.3 977.418 1374.22 990.85 1383.17 999.048Z" fill="#453264"/>
<path d="M1541.9 382.957C1569.16 407.924 1608 402.445 1635.75 373.228C1663.5 344.011 1657.93 298.299 1625.75 279.406C1593.57 260.513 1558.08 261.185 1531.9 289.135C1505.72 317.085 1514.63 357.99 1541.9 382.957Z" fill="#0F90D1"/>
<path d="M-63.1316 1353.3C43.5317 1439.67 213.79 1419.69 322.629 1313.11C431.467 1206.52 416.359 1016.52 281.736 927.423C147.113 838.322 -8.79186 850.01 -104.024 967.612C-199.257 1085.21 -169.795 1266.92 -63.1316 1353.3Z" fill="#0F90D1"/>
<path d="M1490.94 370.49C1577.43 440.524 1577.48 555.47 1520.73 653.893C1463.98 752.315 1367.66 842.915 1300.47 925.894C1233.27 1008.87 1109.09 1030.2 1017.06 955.681C925.038 881.16 910.708 747.937 987.276 672.278C1063.84 596.618 1125.63 482.536 1207.54 400.276C1289.45 318.017 1404.46 300.455 1490.94 370.49Z" fill="#0F90D1"/>
<path d="M1056.63 348.681C1093.45 382.406 1145.91 375.004 1183.39 335.54C1220.88 296.075 1213.36 234.329 1169.89 208.81C1126.42 183.29 1078.49 184.198 1043.12 221.951C1007.76 259.705 1019.8 314.957 1056.63 348.681Z" fill="#C4C8D4"/>
<path d="M-220.854 1017.32C-119.941 1109.73 23.8152 1089.45 126.532 981.307C229.249 873.161 208.652 703.957 89.531 634.025C-29.5896 564.093 -160.942 566.579 -257.855 670.037C-354.768 773.494 -321.767 924.902 -220.854 1017.32Z" fill="#C4C8D4"/>
<path d="M1510.15 1402.31C1611.06 1494.72 1754.82 1474.44 1857.53 1366.3C1960.25 1258.15 1939.65 1088.95 1820.53 1019.01C1701.41 949.083 1570.06 951.569 1473.15 1055.03C1376.23 1158.48 1409.23 1309.89 1510.15 1402.31Z" fill="#C4C8D4"/>
<path d="M1437.56 250.478C1453.1 258.988 1472.34 259.727 1483.75 245.636C1495.16 231.544 1492.98 210.865 1478.88 199.448C1464.79 188.03 1445.16 193.467 1432.69 204.29C1420.23 215.112 1422.02 241.967 1437.56 250.478Z" fill="#EFF3F0"/>
<path d="M1164.69 76.1568C1174.11 81.3146 1185.77 81.7628 1192.69 73.2225C1199.6 64.6822 1198.28 52.1495 1189.74 45.2298C1181.19 38.3101 1169.29 41.6051 1161.74 48.1641C1154.19 54.7232 1155.27 70.9991 1164.69 76.1568Z" fill="#EFF3F0"/>
<path d="M644.186 158.48C557.701 88.4454 544.365 -38.4384 614.399 -124.923C684.433 -211.408 776.891 -304.927 834.661 -396.925C892.431 -488.922 1040.09 -507.197 1118.06 -426.711C1196.04 -346.226 1225.95 -239.753 1147.85 -143.308C1069.75 -46.8634 1004.33 33.9234 927.589 128.693C850.846 223.462 730.671 228.514 644.186 158.48Z" fill="#6759AE"/>
</g>
</g>
<defs>
<clipPath id="clip0">
<rect width="1600" height="3400" fill="white"/>
</clipPath>
</defs>
</svg>
